<?xml version="1.0" encoding="utf-8"?>
<!-- Generator: Adobe Illustrator 22.0.1, SVG Export Plug-In . SVG Version: 6.00 Build 0)  -->
<svg version="1.1" id="Capa_1" xmlns="http://www.w3.org/2000/svg" xmlns:xlink="http://www.w3.org/1999/xlink" x="0px" y="0px"
	 viewBox="0 0 41.712 41.712" style="enable-background:new 0 0 41.712 41.712;" xml:space="preserve">
<style type="text/css">
	.st0{fill:#1E201D;}
</style>
<path class="st0" d="M39.474,29.086c0-0.619,0.492-1.111,1.111-1.111s1.127,0.492,1.127,1.111v10.92
	c0,0.619-0.508,1.127-1.127,1.127H1.111C0.492,41.133,0,40.625,0,40.006v-10.92c0-0.619,0.492-1.111,1.111-1.111
	s1.127,0.492,1.127,1.111v9.809h37.236V29.086z"/>
<path class="st0" d="M31.593,22.633c0.444-0.444,0.444-1.143,0-1.587c-0.429-0.444-1.143-0.444-1.571,0l-8.047,8.032V2.539
	c0-0.619-0.492-1.127-1.111-1.127s-1.127,0.508-1.127,1.127v26.539l-8.031-8.032c-0.444-0.444-1.159-0.444-1.587,0
	c-0.444,0.444-0.444,1.143,0,1.587l9.952,9.952c0.429,0.429,1.143,0.429,1.587,0L31.593,22.633z"/>
</svg>
